HIERARCHY
ROOT Root
{
  OFFSET 0.0 0.0 0.0
  CHANNELS 6 Xposition Yposition Zposition Zrotation Yrotation Xrotation
  JOINT Hips
  {
    OFFSET 0.0 100.0 0.0
    CHANNELS 6 Xposition Yposition Zposition Zrotation Yrotation Xrotation
    JOINT Spine1
    {
      OFFSET -0.013727 5.003763 -0.053727
      CHANNELS 3 Zrotation Yrotation Xrotation
      JOINT Spine2
      {
        OFFSET -0.0 7.125301 -0.029825
        CHANNELS 3 Zrotation Yrotation Xrotation
        JOINT Chest
        {
          OFFSET -1e-06 7.550063 -0.815971
          CHANNELS 3 Zrotation Yrotation Xrotation
          JOINT Neck1
          {
            OFFSET -0.181677 26.311295 -0.553348
            CHANNELS 3 Zrotation Yrotation Xrotation
            JOINT Neck2
            {
              OFFSET -3e-06 7.709397 2.302585
              CHANNELS 3 Zrotation Yrotation Xrotation
              JOINT Head
              {
                OFFSET -5e-06 6.128916 1.953709
                CHANNELS 3 Zrotation Yrotation Xrotation
                JOINT HeadEnd
                {
                  OFFSET 0.003598 16.065403 -1.835379
                  CHANNELS 3 Zrotation Yrotation Xrotation
                }
                JOINT Jaw
                {
                  OFFSET 0.002637 0.475592 3.094941
                  CHANNELS 3 Zrotation Yrotation Xrotation
                }
                JOINT LeftEye
                {
                  OFFSET 3.206381 5.380205 7.586883
                  CHANNELS 3 Zrotation Yrotation Xrotation
                }
                JOINT RightEye
                {
                  OFFSET -3.22244 5.361869 7.558234
                  CHANNELS 3 Zrotation Yrotation Xrotation
                }
              }
            }
          }
          JOINT LeftShoulder
          {
            OFFSET 1.621652 23.237164 5.113413
            CHANNELS 3 Zrotation Yrotation Xrotation
            JOINT LeftArm
            {
              OFFSET 14.919846 2e-06 -5.502326
              CHANNELS 3 Zrotation Yrotation Xrotation
              JOINT LeftForeArm
              {
                OFFSET 28.739307 0.0 -0.002588
                CHANNELS 3 Zrotation Yrotation Xrotation
                JOINT LeftHand
                {
                  OFFSET 27.093981 -1e-06 0.002609
                  CHANNELS 3 Zrotation Yrotation Xrotation
                  JOINT LeftHandThumb1
                  {
                    OFFSET 2.276482 -1.392045 3.191413
                    CHANNELS 3 Zrotation Yrotation Xrotation
                    JOINT LeftHandThumb2
                    {
                      OFFSET 4.012836 -1.828127 1.641654
                      CHANNELS 3 Zrotation Yrotation Xrotation
                      JOINT LeftHandThumb3
                      {
                        OFFSET 2.798515 0.0 -3e-06
                        CHANNELS 3 Zrotation Yrotation Xrotation
                        JOINT LeftHandThumbEnd
                        {
                          OFFSET 3.180793 -4e-06 4e-06
                          CHANNELS 3 Zrotation Yrotation Xrotation
                        }
                      }
                    }
                  }
                  JOINT LeftHandIndex1
                  {
                    OFFSET 3.247555 -0.531998 2.296169
                    CHANNELS 3 Zrotation Yrotation Xrotation
                    JOINT LeftHandIndex2
                    {
                      OFFSET 6.364578 0.01206 0.1786
                      CHANNELS 3 Zrotation Yrotation Xrotation
                      JOINT LeftHandIndex3
                      {
                        OFFSET 3.662364 0.0 0.0
                        CHANNELS 3 Zrotation Yrotation Xrotation
                        JOINT LeftHandIndex4
                        {
                          OFFSET 2.329242 4e-06 4e-06
                          CHANNELS 3 Zrotation Yrotation Xrotation
                          JOINT LeftHandIndexEnd
                          {
                            OFFSET 2.759615 -0.180537 -0.113024
                            CHANNELS 3 Zrotation Yrotation Xrotation
                          }
                        }
                      }
                    }
                  }
                  JOINT LeftHandMiddle1
                  {
                    OFFSET 3.163495 0.240981 1.000332
                    CHANNELS 3 Zrotation Yrotation Xrotation
                    JOINT LeftHandMiddle2
                    {
                      OFFSET 6.19078 -0.259278 -1.002548
                      CHANNELS 3 Zrotation Yrotation Xrotation
                      JOINT LeftHandMiddle3
                      {
                        OFFSET 4.35652 -4e-06 -1e-06
                        CHANNELS 3 Zrotation Yrotation Xrotation
                        JOINT LeftHandMiddle4
                        {
                          OFFSET 2.996877 -8e-06 0.0
                          CHANNELS 3 Zrotation Yrotation Xrotation
                          JOINT LeftHandMiddleEnd
                          {
                            OFFSET 2.304287 -0.294569 -0.031741
                            CHANNELS 3 Zrotation Yrotation Xrotation
                          }
                        }
                      }
                    }
                  }
                  JOINT LeftHandRing1
                  {
                    OFFSET 2.882643 -0.053652 -0.322543
                    CHANNELS 3 Zrotation Yrotation Xrotation
                    JOINT LeftHandRing2
                    {
                      OFFSET 5.854541 -0.486202 -1.373841
                      CHANNELS 3 Zrotation Yrotation Xrotation
                      JOINT LeftHandRing3
                      {
                        OFFSET 4.350578 0.0 3e-06
                        CHANNELS 3 Zrotation Yrotation Xrotation
                        JOINT LeftHandRing4
                        {
                          OFFSET 2.651321 7e-06 2e-06
                          CHANNELS 3 Zrotation Yrotation Xrotation
                          JOINT LeftHandRingEnd
                          {
                            OFFSET 1.936105 0.077687 -7.1e-05
                            CHANNELS 3 Zrotation Yrotation Xrotation
                          }
                        }
                      }
                    }
                  }
                  JOINT LeftHandPinky1
                  {
                    OFFSET 2.8655 -0.310005 -1.600378
                    CHANNELS 3 Zrotation Yrotation Xrotation
                    JOINT LeftHandPinky2
                    {
                      OFFSET 5.087849 -1.331141 -1.77123
                      CHANNELS 3 Zrotation Yrotation Xrotation
                      JOINT LeftHandPinky3
                      {
                        OFFSET 3.070974 4e-06 0.0
                        CHANNELS 3 Zrotation Yrotation Xrotation
                        JOINT LeftHandPinky4
                        {
                          OFFSET 1.549672 0.0 1e-06
                          CHANNELS 3 Zrotation Yrotation Xrotation
                          JOINT LeftHandPinkyEnd
                          {
                            OFFSET 1.944893 -0.157802 0.057219
                            CHANNELS 3 Zrotation Yrotation Xrotation
                          }
                        }
                      }
                    }
                  }
                }
              }
            }
          }
          JOINT RightShoulder
          {
            OFFSET -1.380118 23.180309 5.214158
            CHANNELS 3 Zrotation Yrotation Xrotation
            JOINT RightArm
            {
              OFFSET -15.037196 1.2e-05 -5.545604
              CHANNELS 3 Zrotation Yrotation Xrotation
              JOINT RightForeArm
              {
                OFFSET -28.736639 2e-06 -0.002597
                CHANNELS 3 Zrotation Yrotation Xrotation
                JOINT RightHand
                {
                  OFFSET -27.133619 -0.0 0.002613
                  CHANNELS 3 Zrotation Yrotation Xrotation
                  JOINT RightHandThumb1
                  {
                    OFFSET -2.274032 -1.383988 3.163127
                    CHANNELS 3 Zrotation Yrotation Xrotation
                    JOINT RightHandThumb2
                    {
                      OFFSET -4.011429 -1.827466 1.640914
                      CHANNELS 3 Zrotation Yrotation Xrotation
                      JOINT RightHandThumb3
                      {
                        OFFSET -2.794935 -4e-06 -3e-06
                        CHANNELS 3 Zrotation Yrotation Xrotation
                        JOINT RightHandThumbEnd
                        {
                          OFFSET -3.183852 4e-06 1e-06
                          CHANNELS 3 Zrotation Yrotation Xrotation
                        }
                      }
                    }
                  }
                  JOINT RightHandIndex1
                  {
                    OFFSET -3.253266 -0.520057 2.282866
                    CHANNELS 3 Zrotation Yrotation Xrotation
                    JOINT RightHandIndex2
                    {
                      OFFSET -6.341917 0.012471 0.178266
                      CHANNELS 3 Zrotation Yrotation Xrotation
                      JOINT RightHandIndex3
                      {
                        OFFSET -3.654871 -8e-06 -0.0
                        CHANNELS 3 Zrotation Yrotation Xrotation
                        JOINT RightHandIndex4
                        {
                          OFFSET -2.327586 0.0 1e-06
                          CHANNELS 3 Zrotation Yrotation Xrotation
                          JOINT RightHandIndexEnd
                          {
                            OFFSET -2.76179 -0.180656 -0.113078
                            CHANNELS 3 Zrotation Yrotation Xrotation
                          }
                        }
                      }
                    }
                  }
                  JOINT RightHandMiddle1
                  {
                    OFFSET -3.168106 0.246593 1.00103
                    CHANNELS 3 Zrotation Yrotation Xrotation
                    JOINT RightHandMiddle2
                    {
                      OFFSET -6.180828 -0.258836 -1.000895
                      CHANNELS 3 Zrotation Yrotation Xrotation
                      JOINT RightHandMiddle3
                      {
                        OFFSET -4.348901 0.0 -0.0
                        CHANNELS 3 Zrotation Yrotation Xrotation
                        JOINT RightHandMiddle4
                        {
                          OFFSET -3.00024 -4e-06 -2e-06
                          CHANNELS 3 Zrotation Yrotation Xrotation
                          JOINT RightHandMiddleEnd
                          {
                            OFFSET -2.30252 -0.29437 -0.031706
                            CHANNELS 3 Zrotation Yrotation Xrotation
                          }
                        }
                      }
                    }
                  }
                  JOINT RightHandRing1
                  {
                    OFFSET -2.88569 -0.067952 -0.308858
                    CHANNELS 3 Zrotation Yrotation Xrotation
                    JOINT RightHandRing2
                    {
                      OFFSET -5.854198 -0.48613 -1.373731
                      CHANNELS 3 Zrotation Yrotation Xrotation
                      JOINT RightHandRing3
                      {
                        OFFSET -4.33881 -4e-06 -0.0
                        CHANNELS 3 Zrotation Yrotation Xrotation
                        JOINT RightHandRing4
                        {
                          OFFSET -2.654903 -4e-06 4e-06
                          CHANNELS 3 Zrotation Yrotation Xrotation
                          JOINT RightHandRingEnd
                          {
                            OFFSET -1.933568 0.077527 -5.2e-05
                            CHANNELS 3 Zrotation Yrotation Xrotation
                          }
                        }
                      }
                    }
                  }
                  JOINT RightHandPinky1
                  {
                    OFFSET -2.866425 -0.342796 -1.584145
                    CHANNELS 3 Zrotation Yrotation Xrotation
                    JOINT RightHandPinky2
                    {
                      OFFSET -5.091371 -1.332055 -1.772385
                      CHANNELS 3 Zrotation Yrotation Xrotation
                      JOINT RightHandPinky3
                      {
                        OFFSET -3.062664 -4e-06 1e-06
                        CHANNELS 3 Zrotation Yrotation Xrotation
                        JOINT RightHandPinky4
                        {
                          OFFSET -1.546529 4e-06 -2e-06
                          CHANNELS 3 Zrotation Yrotation Xrotation
                          JOINT RightHandPinkyEnd
                          {
                            OFFSET -1.945119 -0.157718 0.057211
                            CHANNELS 3 Zrotation Yrotation Xrotation
                          }
                        }
                      }
                    }
                  }
                }
              }
            }
          }
        }
      }
    }
    JOINT LeftLeg
    {
      OFFSET 10.043214 -8.434526 2.595655
      CHANNELS 3 Zrotation Yrotation Xrotation
      JOINT LeftShin
      {
        OFFSET -1e-06 -43.221752 -0.802913
        CHANNELS 3 Zrotation Yrotation Xrotation
        JOINT LeftFoot
        {
          OFFSET 1e-06 -42.155094 -3.481523
          CHANNELS 3 Zrotation Yrotation Xrotation
          JOINT LeftToeBase
          {
            OFFSET 0.0 -5.059472 13.231529
            CHANNELS 3 Zrotation Yrotation Xrotation
            JOINT LeftToeEnd
            {
              OFFSET -0.009607 -1.647619 6.513017
              CHANNELS 3 Zrotation Yrotation Xrotation
            }
          }
        }
      }
    }
    JOINT RightLeg
    {
      OFFSET -10.047278 -8.29526 2.620317
      CHANNELS 3 Zrotation Yrotation Xrotation
      JOINT RightShin
      {
        OFFSET 1e-06 -43.362206 -0.805556
        CHANNELS 3 Zrotation Yrotation Xrotation
        JOINT RightFoot
        {
          OFFSET 2e-06 -42.117393 -3.478398
          CHANNELS 3 Zrotation Yrotation Xrotation
          JOINT RightToeBase
          {
            OFFSET -0.0 -5.079609 13.284196
            CHANNELS 3 Zrotation Yrotation Xrotation
            JOINT RightToeEnd
            {
              OFFSET 0.009532 -1.634378 6.460591
              CHANNELS 3 Zrotation Yrotation Xrotation
            }
          }
        }
      }
    }
  }
}
MOTION
Frames: 4
Frame Time: 0.03333333333333333
0.0 0.0 0.0 0.0 -0.0 0.0 0.935342 94.541214 338.862 3.06663 4.16278 -1.405155 -1.565259 -0.560323 -0.740093 -1.149807 -0.464215 -4.9208 -2.901659 -2.192749 14.572436 2.380556 2.176066 2.220929 -0.009542 2.752154 -3.696575 0.26296 3.039437 -7.199643 7.7e-05 -2.3e-05 6e-06 0.003991 -0.064144 0.003598 0.732195 -3.79341 -10.840917 -0.733102 3.677429 -10.864773 -10.132409 -6.593539 15.782897 -57.899891 -1.596478 8.230409 -176.804947 -88.227119 175.787857 10.245466 -3.102065 -7.302082 -5.882109 9.86129 0.70259 -10.936875 -0.360574 7.156209 0.0 8.774831 0.0 -15.729796 18.22249 6.322094 -1.844033 2.498506 -2.50728 -10.163602 4.678946 4.621112 -20.97603 -6e-06 -0.0 -21.226294 2.451695 -3.594002 0.0 -6e-06 -0.0 -1.362682 2.240798 -0.746325 -21.334925 0.58491 3.008324 -13.821218 -3e-06 1e-06 -23.887178 -0.249081 -0.839485 -60.13464 2.463389 -1.329594 -0.294025 1.679688 0.833256 -14.218214 0.093216 1.30058 -34.212055 -0.287566 0.967168 -20.033218 0.964536 1.212844 0.0 0.0 -0.0 -3.440389 0.788234 0.501656 -15.928189 -3.167311 2.999708 -6.338826 -0.0 0.0 -18.123449 3.648182 -4.905674 -7e-06 -0.0 -2e-06 21.142387 3.355914 18.710911 60.421078 -5.186505 -2.816158 179.694092 85.000763 179.544693 -4.022531 0.486302 10.684108 2.243543 -5.255038 -3.180161 14.282896 -0.826597 6.952507 -3e-06 -12.69061 3e-06 15.465582 -18.096685 2.975972 1.665667 -1.955923 -2.878301 4.727801 -4.170588 4.993927 11.020529 2e-06 -1e-06 12.109058 -3.735717 -2.866786 -0.0 -0.0 0.0 1.291986 -1.928551 -1.49809 14.800136 0.56747 3.86561 14.24258 -1.341737 -6.660661 19.631973 0.143928 -0.648247 49.942715 -0.459131 -6.326931 0.353029 -1.511153 -0.031939 20.222801 3.684311 2.316631 18.787277 4e-06 -1e-06 10.751632 -0.479869 1.397906 -0.0 1e-06 1e-06 3.273809 0.305947 -0.580111 21.486824 11.830379 2.266131 8.16293 1e-06 0.0 18.399092 -3.798986 -4.940578 3e-06 0.0 -1e-06 -4.117025 4.61968 -6.813437 -0.081167 -0.142971 35.75449 0.754836 -1.339834 -23.106815 1.715256 -2.003118 0.024613 0.0 -0.0 2e-06 -3.058018 -2.932769 -14.438398 -0.038251 -0.361263 76.033684 -3.176621 -12.260802 -2.90411 -1.494649 0.922504 -4.038186 0.0 0.0 -1e-06 
0.0 0.0 0.0 0.0 -0.0 0.0 0.815929 95.557724 346.369934 0.979755 4.495798 -0.658565 -1.18123 -0.900834 -0.976184 -0.915976 -1.791736 -4.948148 -1.888124 -3.857974 13.974223 2.249973 2.340034 2.748699 0.399748 3.601879 -3.691659 -0.041599 4.385375 -6.428229 7.7e-05 -2.3e-05 6e-06 0.001603 -0.183007 -0.014751 0.723131 -3.906298 -10.869348 -0.726944 3.554118 -10.892622 -8.106081 -8.519773 15.076715 -60.557743 -6.771066 6.380667 -170.282959 -85.645309 169.019257 11.920886 -4.395096 -7.084836 -5.882109 9.86129 0.702591 -10.936875 -0.360575 7.156212 1e-06 8.77483 -0.0 -15.840358 18.269005 6.328444 -1.844034 2.498506 -2.50728 -10.163602 4.678947 4.621113 -20.97603 -4e-06 1e-06 -21.226295 2.451697 -3.594002 1e-06 -6e-06 -0.0 -1.362682 2.240799 -0.746324 -21.334925 0.58491 3.008326 -13.82122 -3e-06 2e-06 -23.88718 -0.249078 -0.839483 -60.041557 2.43571 -1.387692 -0.294025 1.679688 0.833256 -14.218212 0.093214 1.300582 -34.212055 -0.287564 0.967171 -20.03322 0.964539 1.212844 -0.0 0.0 0.0 -3.440389 0.788234 0.501656 -15.928196 -3.167311 2.999711 -6.338829 -1e-06 1e-06 -18.123459 3.648184 -4.905673 -6e-06 0.0 -2e-06 21.700415 1.041718 18.46912 60.229321 -11.560514 -2.458164 -179.800095 83.26329 179.498459 -2.77224 0.761707 12.201862 2.243543 -5.25504 -3.180161 14.282899 -0.826597 6.952507 -3e-06 -12.690613 2e-06 15.463227 -18.028635 2.8702 1.665668 -1.955924 -2.878302 4.727801 -4.170589 4.993928 11.020533 3e-06 -3e-06 12.109059 -3.735716 -2.866787 0.0 -2e-06 0.0 1.291987 -1.928552 -1.49809 14.800136 0.567469 3.86561 14.242582 -1.341735 -6.660664 19.631983 0.143928 -0.648246 49.883377 -0.534105 -6.2699 0.353029 -1.511151 -0.031941 20.222803 3.684312 2.316629 18.787285 4e-06 -3e-06 10.751634 -0.479868 1.397906 -1e-06 -1e-06 -0.0 3.273809 0.305947 -0.580112 21.486826 11.830384 2.26613 8.162932 2e-06 0.0 18.399094 -3.798986 -4.94058 3e-06 0.0 -1e-06 -1.132442 4.100411 0.79436 0.007236 -0.363297 28.712664 -0.081491 -1.214123 -20.903399 1.751001 -1.978337 -2.062228 0.0 0.0 2e-06 -0.257089 -2.800247 -21.962454 -0.084247 -0.44054 71.471954 -0.927885 -12.016991 -4.823672 -1.443905 0.869309 -3.731898 0.0 0.0 -4e-06 
0.0 0.0 0.0 0.0 -0.0 0.0 0.592254 97.325989 354.141174 -1.263459 4.199174 0.590235 -0.634924 -1.170335 -1.691475 -0.764079 -2.965468 -5.205946 -0.461308 -5.317277 13.286573 1.865198 2.46117 3.348469 0.806819 4.677004 -3.652286 -0.343906 5.861005 -5.468074 7.7e-05 -2.2e-05 6e-06 0.004497 -0.259092 -0.021443 0.74102 -3.978264 -10.895502 -0.735223 3.474362 -10.909145 -6.246119 -9.994512 14.421696 -62.951355 -10.040257 5.671063 -172.110825 -82.462639 171.135071 13.389676 -5.477617 -8.204104 -5.882107 9.861292 0.702589 -10.936875 -0.360575 7.156209 1e-06 8.774831 -1e-06 -15.776523 18.530912 6.458037 -1.844033 2.498507 -2.507279 -10.163602 4.678948 4.621111 -20.976028 -2e-06 1e-06 -21.226292 2.451699 -3.594005 -1e-06 -6e-06 -0.0 -1.362682 2.2408 -0.746324 -21.334921 0.584911 3.008326 -13.821217 -2e-06 2e-06 -23.887177 -0.249077 -0.839485 -60.04916 2.490703 -1.501435 -0.294024 1.679689 0.833256 -14.218214 0.093216 1.300582 -34.212055 -0.287561 0.96717 -20.033218 0.964539 1.212844 -0.0 -0.0 0.0 -3.44039 0.788234 0.501656 -15.928189 -3.16731 2.999711 -6.338829 -1e-06 1e-06 -18.123453 3.648185 -4.905674 -5e-06 -0.0 -2e-06 21.543175 -0.849783 18.188713 59.792221 -17.427111 -2.623339 178.042984 81.815392 177.17984 -1.857133 0.848807 11.724935 2.243543 -5.255039 -3.180161 14.282893 -0.826598 6.952507 0.0 -12.690614 0.0 15.499967 -17.932903 2.802634 1.665667 -1.955923 -2.878302 4.7278 -4.17059 4.993927 11.020528 3e-06 -4e-06 12.109058 -3.735719 -2.866789 -1e-06 -0.0 -1e-06 1.291986 -1.928551 -1.49809 14.800132 0.567466 3.865608 14.242579 -1.341739 -6.660666 19.631973 0.143926 -0.648249 49.92717 -0.666189 -6.280747 0.35303 -1.511151 -0.031941 20.222799 3.684309 2.316629 18.787279 3e-06 -5e-06 10.751633 -0.47987 1.397905 -0.0 0.0 -2e-06 3.273808 0.305945 -0.580111 21.486814 11.830381 2.26613 8.162928 2e-06 -1e-06 18.39909 -3.79899 -4.940582 2e-06 -0.0 -1e-06 1.743367 3.265681 8.081925 0.207488 -0.344855 20.447723 -0.780101 -0.777975 -13.120454 1.88052 -1.954073 -8.138719 -0.0 -0.0 2e-06 2.851587 -2.417108 -27.363359 -0.208602 -0.39136 60.469051 1.749882 -11.555434 -4.884982 -1.439198 0.909612 -3.808085 -0.0 0.0 -1e-06 
0.0 0.0 0.0 0.0 -0.0 0.0 0.358115 99.276169 362.138519 -3.090153 3.368214 1.913441 -0.011677 -1.322757 -2.651628 -0.538397 -3.942839 -5.627331 0.73381 -6.228378 12.819314 1.223115 2.739461 3.904356 1.075746 5.725233 -3.637055 -0.574057 6.995365 -4.621423 7.7e-05 -2.2e-05 6e-06 0.002927 -0.230054 -0.012218 0.753188 -3.959785 -10.942477 -0.748863 3.513364 -10.942945 -4.902825 -10.765779 13.90774 -64.583687 -11.675732 6.402043 -175.474243 -79.38559 174.757156 14.278871 -6.188747 -8.32098 -5.882113 9.861298 0.70259 -10.936883 -0.360574 7.156216 -1e-06 8.774835 -2e-06 -15.906753 18.610313 6.461617 -1.844034 2.498508 -2.507281 -10.16361 4.678951 4.621115 -20.976044 0.0 2e-06 -21.226309 2.451702 -3.594006 -0.0 -6e-06 -0.0 -1.362682 2.240801 -0.746324 -21.334938 0.584914 3.008328 -13.82123 -0.0 1e-06 -23.887196 -0.249075 -0.839486 -60.449326 2.49217 -1.612501 -0.294025 1.679689 0.833257 -14.218224 0.093217 1.300583 -34.212086 -0.287559 0.96717 -20.033236 0.964541 1.212844 0.0 -0.0 0.0 -3.440392 0.788234 0.501657 -15.928201 -3.167311 2.999713 -6.338831 -0.0 1e-06 -18.123463 3.64819 -4.905678 -4e-06 0.0 -2e-06 20.522335 -1.726512 18.444729 60.399269 -21.72682 -3.791679 177.38588 81.528305 176.769638 -1.450875 0.465239 11.730994 2.243544 -5.25504 -3.180159 14.282896 -0.826596 6.9525 -1e-06 -12.690612 1e-06 15.581583 -17.8104 2.771161 1.665668 -1.955922 -2.8783 4.727802 -4.170591 4.993923 11.020531 4e-06 -4e-06 12.109058 -3.735718 -2.866788 -0.0 -0.0 -0.0 1.291987 -1.928552 -1.49809 14.800136 0.567468 3.865606 14.24258 -1.341738 -6.660664 19.631975 0.143925 -0.64825 49.977016 -0.708467 -6.330695 0.353029 -1.511152 -0.031939 20.222799 3.68431 2.316625 18.787277 4e-06 -5e-06 10.751632 -0.479869 1.397904 2e-06 2e-06 1e-06 3.273808 0.305946 -0.580111 21.486818 11.830382 2.266129 8.162929 1e-06 -2e-06 18.399092 -3.798988 -4.940583 2e-06 1e-06 -1e-06 4.076195 3.161237 13.648971 0.202802 -0.24097 14.419972 -0.473307 -0.289062 -0.8972 2.056551 -1.869059 -17.345015 -0.0 -0.0 2e-06 5.486234 -1.891781 -29.827908 -0.165939 -0.203617 45.315933 4.025851 -10.543775 -2.276222 -1.442443 0.939824 -3.936806 0.0 0.0 -1e-06 
